# xmcd
#
# Track frame offsets: 
#        150
#        13759
#        26989
#        43278
#        57541
#        76837
#        94336
#        106703
#        116463
#        123394
#        134916
#        152896
#        161740
#
# Disc length: 2292 seconds
#
# Revision: 0
# Processed by: cddbd v1.5.2PL0 Copyright (c) Steve Scherf et al.
# Submitted via: ExactAudioCopy v1.0b3
#
DISCID=b608f20d
DTITLE=Radio On - Stallion's Final Romance
DYEAR=2006
DGENRE=Rock
TTITLE0=Houston
TTITLE1=Bottles of Wine
TTITLE2=That's What the Cowboys do
TTITLE3=Stallion's Final Romance
TTITLE4=Free Moments
TTITLE5=Make My Way
TTITLE6=I Am a Dream
TTITLE7=Workin'
TTITLE8=Southern Law
TTITLE9=Carry Him home
TTITLE10=Whiskey Mountain
TTITLE11=Stranger in the Morning Light
TTITLE12=On the Way Out (Instrumental)
EXTD=
EXTT0=
EXTT1=
EXTT2=
EXTT3=
EXTT4=
EXTT5=
EXTT6=
EXTT7=
EXTT8=
EXTT9=
EXTT10=
EXTT11=
EXTT12=
PLAYORDER=
